<?xml version="1.0" encoding="utf-8"?>
<!-- Generator: Adobe Illustrator 23.0.5, SVG Export Plug-In . SVG Version: 6.00 Build 0)  -->
<svg version="1.1" id="Layer_1" xmlns="http://www.w3.org/2000/svg" xmlns:xlink="http://www.w3.org/1999/xlink" x="0px" y="0px"
	 viewBox="0 0 283.85 119.98" style="enable-background:new 0 0 283.85 119.98;" xml:space="preserve">
<style type="text/css">
	.st0{fill:#FBCE00;}
	.st1{fill:#FFFFFF;}
	.st2{fill:#39CEBF;}
	.st3{clip-path:url(#SVGID_6_);}
	.st4{fill:#39CDBE;}
	.st5{fill:none;stroke:url(#SVGID_7_);stroke-width:32;stroke-miterlimit:10;}
	.st6{fill:#DE2F45;}
	.st7{fill:url(#SVGID_8_);}
	.st8{fill:#DC00A3;}
	.st9{fill:url(#SVGID_9_);}
	.st10{fill:none;stroke:#FFFFFF;stroke-width:20.3878;stroke-miterlimit:10;}
	.st11{fill:#FAE049;}
	.st12{fill:#712F79;}
	.st13{fill:#080357;}
	.st14{fill:#FC7F2D;}
	.st15{fill:#276FBD;}
	.st16{fill:#EB567D;}
	.st17{fill:#C857D1;}
	.st18{fill:#060682;}
	.st19{fill:#FA9144;}
	.st20{fill:#2F8BD1;}
	.st21{fill:#AD008C;}
	.st22{clip-path:url(#SVGID_11_);}
	.st23{fill:none;stroke:url(#SVGID_12_);stroke-width:32;stroke-miterlimit:10;}
	.st24{fill:url(#SVGID_13_);}
	.st25{fill:url(#SVGID_14_);}
	.st26{fill:#0F0F0F;}
	.st27{clip-path:url(#SVGID_16_);}
	.st28{fill:none;stroke:url(#SVGID_17_);stroke-width:32;stroke-miterlimit:10;}
	.st29{fill:url(#SVGID_18_);}
	.st30{fill:url(#SVGID_19_);}
	.st31{fill:#DFDFDF;}
	.st32{fill:#ADADAD;}
	.st33{fill:#121B46;}
	.st34{fill:#6DB2E3;}
	.st35{fill:#3CDEBC;}
	.st36{fill:#BCDFFD;}
	.st37{fill:#FF5C5B;}
	.st38{clip-path:url(#SVGID_21_);}
	.st39{fill:#FF9F9E;}
	.st40{fill:#F7BB8B;}
	.st41{fill:#F28766;}
	.st42{fill:#28AD92;}
	.st43{fill:#35C4A6;}
	.st44{fill:#C4C4C4;}
	.st45{fill:#919191;}
	.st46{fill:#EBEBEB;}
	.st47{fill:#FDB32C;}
	.st48{fill:#EBA771;}
	.st49{fill:#FAFAFA;}
	.st50{fill:#1A2E35;}
	.st51{fill:#375A64;}
	.st52{fill:#FCB4B4;}
	.st53{fill:#FF735D;}
	.st54{fill:#7F473D;}
	.st55{opacity:0.3;}
	.st56{fill:none;stroke:#44555B;stroke-width:0.05;stroke-miterlimit:10;}
	.st57{fill:#E1E1E1;}
	.st58{fill:#BBD0FF;}
	.st59{fill:#AEC3FF;}
	.st60{fill:#F99746;}
	.st61{fill:#C0CCFF;}
	.st62{opacity:0.5;}
	.st63{fill:#B6C4FF;}
	.st64{fill:#8D9EFF;}
	.st65{fill:#F3F5FF;}
	.st66{fill:#8C9DF4;}
	.st67{fill:#060633;}
	.st68{fill:#6980E2;}
	.st69{fill:#5067C9;}
	.st70{fill:#233862;}
	.st71{fill:#F9DDBF;}
	.st72{fill:#182B49;}
	.st73{fill:#2B478B;}
	.st74{fill:#FFB27D;}
	.st75{fill:#E2915A;}
	.st76{fill:#EF873A;}
	.st77{fill:#E8E8E8;}
	.st78{fill:#D2E0FF;}
	.st79{fill:#EBF3FA;}
	.st80{fill:#9FB1FF;}
	.st81{fill:#182D4C;}
	.st82{fill:#2E3552;}
	.st83{clip-path:url(#SVGID_23_);}
	.st84{fill:url(#SVGID_24_);}
	.st85{fill:url(#SVGID_25_);}
	.st86{clip-path:url(#SVGID_27_);fill:#FFFFFF;}
	.st87{clip-path:url(#SVGID_27_);fill:#FEFEFF;}
	.st88{clip-path:url(#SVGID_27_);fill:#FEFEFE;}
	.st89{clip-path:url(#SVGID_27_);fill:#FDFEFE;}
	.st90{clip-path:url(#SVGID_27_);fill:#FDFDFE;}
	.st91{clip-path:url(#SVGID_27_);fill:#FCFDFE;}
	.st92{clip-path:url(#SVGID_27_);fill:#FCFCFD;}
	.st93{clip-path:url(#SVGID_27_);fill:#FBFCFD;}
	.st94{clip-path:url(#SVGID_27_);fill:#FBFBFD;}
	.st95{clip-path:url(#SVGID_27_);fill:#FAFBFC;}
	.st96{clip-path:url(#SVGID_27_);fill:#FAFAFC;}
	.st97{clip-path:url(#SVGID_27_);fill:#F9FAFC;}
	.st98{clip-path:url(#SVGID_27_);fill:#F8F9FB;}
	.st99{clip-path:url(#SVGID_27_);fill:#F7F8FB;}
	.st100{clip-path:url(#SVGID_27_);fill:#F6F7FA;}
	.st101{clip-path:url(#SVGID_27_);fill:#F5F7FA;}
	.st102{clip-path:url(#SVGID_27_);fill:#F5F6FA;}
	.st103{clip-path:url(#SVGID_27_);fill:#F4F5F9;}
	.st104{clip-path:url(#SVGID_27_);fill:#F3F5F9;}
	.st105{clip-path:url(#SVGID_27_);fill:#F2F4F8;}
	.st106{clip-path:url(#SVGID_27_);fill:#F1F3F8;}
	.st107{clip-path:url(#SVGID_27_);fill:#F0F2F7;}
	.st108{clip-path:url(#SVGID_27_);fill:#EFF2F7;}
	.st109{clip-path:url(#SVGID_27_);fill:#EFF1F6;}
	.st110{clip-path:url(#SVGID_27_);fill:#EEF0F6;}
	.st111{clip-path:url(#SVGID_27_);fill:#EDEFF5;}
	.st112{clip-path:url(#SVGID_27_);fill:#ECEEF5;}
	.st113{clip-path:url(#SVGID_27_);fill:#EBEDF4;}
	.st114{clip-path:url(#SVGID_27_);fill:#EAEDF4;}
	.st115{clip-path:url(#SVGID_27_);fill:#E9ECF3;}
	.st116{clip-path:url(#SVGID_27_);fill:#E8EBF3;}
	.st117{clip-path:url(#SVGID_27_);fill:#E7EAF2;}
	.st118{clip-path:url(#SVGID_27_);fill:#E6E9F2;}
	.st119{clip-path:url(#SVGID_27_);fill:#E5E8F1;}
	.st120{clip-path:url(#SVGID_27_);fill:#E4E7F1;}
	.st121{clip-path:url(#SVGID_27_);fill:#E2E6F0;}
	.st122{clip-path:url(#SVGID_27_);fill:#E1E5F0;}
	.st123{clip-path:url(#SVGID_27_);fill:#E0E4EF;}
	.st124{clip-path:url(#SVGID_27_);fill:#DFE3EE;}
	.st125{clip-path:url(#SVGID_27_);fill:#DEE2EE;}
	.st126{clip-path:url(#SVGID_27_);fill:#DDE1ED;}
	.st127{clip-path:url(#SVGID_27_);fill:#DCE0ED;}
	.st128{clip-path:url(#SVGID_27_);fill:#DADFEC;}
	.st129{clip-path:url(#SVGID_27_);fill:#D9DEEB;}
	.st130{clip-path:url(#SVGID_27_);fill:#D8DDEB;}
	.st131{clip-path:url(#SVGID_27_);fill:#D7DCEA;}
	.st132{clip-path:url(#SVGID_27_);fill:#D5DBE9;}
	.st133{clip-path:url(#SVGID_27_);fill:#D4DAE9;}
	.st134{clip-path:url(#SVGID_27_);fill:#D3D9E8;}
	.st135{clip-path:url(#SVGID_27_);fill:#D2D8E7;}
	.st136{clip-path:url(#SVGID_27_);fill:#D0D7E7;}
	.st137{clip-path:url(#SVGID_27_);fill:#CFD5E6;}
	.st138{clip-path:url(#SVGID_27_);fill:#CED4E5;}
	.st139{clip-path:url(#SVGID_27_);fill:#CCD3E5;}
	.st140{clip-path:url(#SVGID_27_);fill:#CBD2E4;}
	.st141{clip-path:url(#SVGID_27_);fill:#CAD1E3;}
	.st142{clip-path:url(#SVGID_27_);fill:#C8D0E3;}
	.st143{clip-path:url(#SVGID_27_);fill:#C7CEE2;}
	.st144{clip-path:url(#SVGID_27_);fill:#C6CDE1;}
	.st145{clip-path:url(#SVGID_27_);fill:#C4CCE0;}
	.st146{clip-path:url(#SVGID_27_);fill:#C3CBE0;}
	.st147{clip-path:url(#SVGID_27_);fill:#C1CADF;}
	.st148{clip-path:url(#SVGID_27_);fill:#C0C8DE;}
	.st149{clip-path:url(#SVGID_27_);fill:#BEC7DD;}
	.st150{clip-path:url(#SVGID_27_);fill:#BDC6DD;}
	.st151{clip-path:url(#SVGID_27_);fill:#BCC5DC;}
	.st152{clip-path:url(#SVGID_27_);fill:#BAC3DB;}
	.st153{clip-path:url(#SVGID_27_);fill:#B9C2DA;}
	.st154{clip-path:url(#SVGID_27_);fill:#B7C1DA;}
	.st155{clip-path:url(#SVGID_27_);fill:#B6BFD9;}
	.st156{clip-path:url(#SVGID_27_);fill:#B4BED8;}
	.st157{enable-background:new    ;}
	.st158{fill:#3C52C7;}
	.st159{fill:#8DABFC;}
	.st160{fill:#5677D5;}
	.st161{fill:#748AFD;}
	.st162{fill:#B3BCD7;}
	.st163{fill:#576DFC;}
	.st164{fill:#B8C9FA;}
	.st165{fill:#F95A75;}
	.st166{fill:#FDABAB;}
	.st167{fill:#5B5C70;}
	.st168{fill:#023248;}
	.st169{fill:#005478;}
</style>
<g>
	<path class="st1" d="M268.86,119.98H14.99C6.71,119.98,0,113.27,0,104.99V14.99C0,6.71,6.71,0,14.99,0h253.86
		c8.28,0,14.99,6.71,14.99,14.99v89.99C283.85,113.27,277.14,119.98,268.86,119.98z"/>
	<g>
		<g id="XMLID_61_">
			<path id="XMLID_74_" d="M108.55,59.8v17.91h-7.15V61.23c0-8,4.03-11.97,12.03-11.97c3.6,0,6.36,0.79,8.37,2.38
				c2.01-1.54,4.77-2.28,8.37-2.28c8,0,11.97,3.97,11.92,11.97v16.48h-3.66c-2.33-0.16-3.5-1.27-3.5-3.5V59.91
				c-0.16-2.91-1.75-4.34-4.87-4.34s-4.71,1.43-4.77,4.34v17.8h-7.1V59.8c-0.16-2.91-1.75-4.34-4.87-4.34S108.6,56.89,108.55,59.8z"
				/>
			<path id="XMLID_71_" d="M149.81,41.69c2.33,0,3.44,1.17,3.39,3.44v2.07h-7.05v-5.51H149.81z M149.81,49.68
				c2.28,0,3.39,1.11,3.39,3.39v24.63h-7.05V49.68H149.81z"/>
			<path id="XMLID_69_" d="M164.22,45.13v15.52l8.69-9.96h8.48l-9.69,10.38l9.8,16.63h-8.48l-4.98-9.22c-0.9-1.59-1.8-2.38-2.7-2.38
				c-0.74,0.16-1.11,0.64-1.11,1.38v10.22h-7.05V41.69h3.66C162.69,41.69,164.22,43.27,164.22,45.13z"/>
			<path id="XMLID_67_" d="M190.07,45.13v15.52l8.69-9.96h8.48l-9.69,10.38l9.8,16.63h-8.48l-4.98-9.22c-0.9-1.59-1.8-2.38-2.7-2.38
				c-0.74,0.16-1.11,0.64-1.11,1.38v10.22h-7.05V41.69h3.66C188.54,41.69,190.07,43.27,190.07,45.13z"/>
			<path id="XMLID_65_" d="M221.91,55.56c-4.18,0-5.99,3.5-5.99,7.79v14.36h-7.05V41.69h3.55c2.33,0,3.5,1.22,3.5,3.55v8.37
				c3.6-4.13,8-5.3,13.24-3.44c3.92,1.43,5.77,5.19,5.56,11.28v16.26h-6.99V63.35C227.74,58.64,225.94,55.56,221.91,55.56z"/>
			<path id="XMLID_62_" d="M245.59,57h-7.05c0.85-5.19,4.5-7.73,10.97-7.73c7.73,0,11.65,2.54,11.81,7.73v9.54
				c0,7.73-4.66,11.18-12.24,11.71c-6.73,0.53-11.39-2.6-11.39-8.79c0.16-6.73,5.03-8.53,12.13-9.22c3.02-0.37,4.56-1.27,4.56-2.81
				c-0.16-1.59-1.64-2.38-4.56-2.38C247.34,55.04,245.96,55.67,245.59,57z M254.49,66.21v-2.6c-1.64,0.69-3.55,1.27-5.62,1.7
				c-2.81,0.53-4.24,1.85-4.24,3.92c0.16,2.22,1.32,3.28,3.55,3.28C252.11,72.52,254.49,70.19,254.49,66.21z"/>
		</g>
		<g>
			<path class="st2" d="M86.43,37.2c-5.4-1.56-10.37-2.12-14.89-1.71c-1.67-7.41-8.29-12.97-16.2-12.97
				c-7.91,0-14.53,5.56-16.2,12.97c-4.52-0.41-9.49,0.15-14.89,1.7l-1.72,0.5v55.35l2.78-0.65c0.28-0.06,4.13-0.58,9.02-0.58
				c1.03,0,2.09,0.02,3.19,0.08c8.1,0.4,14.08,2.27,17.82,5.56c3.74-3.29,9.73-5.16,17.82-5.56c6.29-0.32,11.87,0.42,12.2,0.5
				l2.78,0.65V37.7L86.43,37.2z M55.33,26.85c5.77,0,10.62,4,11.94,9.37c-0.41,0.1-0.82,0.2-1.21,0.32
				c-3.35,1.01-6.4,2.66-9.13,4.97c-0.23,0.19-0.46,0.4-0.74,0.65l-0.85,0.78l-0.85-0.78c-0.28-0.25-0.52-0.46-0.74-0.65
				c-2.74-2.32-5.81-3.98-9.18-4.99c-0.38-0.11-0.77-0.2-1.16-0.3C44.72,30.85,49.57,26.85,55.33,26.85z M83.54,86.96l-1.47-0.17
				c-5.28-0.6-18.79,0.03-26.11,4.22l-0.62,0.35l-0.62-0.35c-7.32-4.18-20.84-4.82-26.11-4.22l-1.47,0.17V41.59l1.06-0.24
				c4.38-0.99,8.38-1.2,12-0.66c1.37,0.21,2.69,0.53,3.95,0.96c2.48,0.84,4.73,2.12,6.75,3.82c1.61,1.36,3.1,3.01,4.43,4.92
				c1.34-1.91,2.82-3.56,4.43-4.92c2-1.69,4.24-2.95,6.69-3.8c1.26-0.43,2.58-0.76,3.96-0.97c3.63-0.56,7.66-0.35,12.06,0.65
				l1.06,0.24V86.96z"/>
			<path class="st2" d="M61.42,57.63c-2.6,0-4.59,0.54-6.05,1.65c-1.45-1.15-3.45-1.72-6.05-1.72c-5.78,0-8.69,2.87-8.69,8.65v11.91
				h5.17V65.17c0.04-2.11,1.19-3.14,3.45-3.14c2.26,0,3.41,1.03,3.52,3.14v12.94h5.13V65.25c0.04-2.11,1.19-3.14,3.45-3.14
				s3.41,1.03,3.52,3.14v10.41c0,1.61,0.84,2.41,2.53,2.53h2.64V66.28C70.07,60.5,67.2,57.63,61.42,57.63z"/>
		</g>
	</g>
</g>
</svg>
