<?xml version="1.0" encoding="utf-8"?>
<!-- Generator: Adobe Illustrator 23.1.1, SVG Export Plug-In . SVG Version: 6.00 Build 0)  -->
<svg version="1.1" id="Layer_1" xmlns="http://www.w3.org/2000/svg" xmlns:xlink="http://www.w3.org/1999/xlink" x="0px" y="0px"
	 viewBox="0 0 120 38.2" style="enable-background:new 0 0 120 38.2;" xml:space="preserve">
<style type="text/css">
	.st0{fill:#0F0F0F;}
	.st1{fill:#39CFC0;}
</style>
<g>
	<g id="XMLID_155_">
		<path id="XMLID_352_" class="st0" d="M43.25,19.01v8.98h-3.59v-8.27c0-4.01,2.02-6.01,6.03-6.01c1.81,0,3.19,0.4,4.2,1.2
			c1.01-0.77,2.39-1.14,4.2-1.14c4.01,0,6.01,1.99,5.98,6.01v8.27h-1.83c-1.17-0.08-1.75-0.64-1.75-1.75v-7.23
			c-0.08-1.46-0.88-2.18-2.45-2.18c-1.57,0-2.37,0.72-2.39,2.18v8.93h-3.56v-8.98c-0.08-1.46-0.88-2.18-2.45-2.18
			C44.08,16.83,43.28,17.54,43.25,19.01z"/>
		<path id="XMLID_349_" class="st0" d="M63.96,9.91c1.17,0,1.73,0.58,1.7,1.73v1.04h-3.54V9.91H63.96z M63.96,13.93
			c1.14,0,1.7,0.56,1.7,1.7v12.36h-3.54V13.93H63.96z"/>
		<path id="XMLID_346_" class="st0" d="M71.19,11.64v7.79l4.36-5h4.25l-4.86,5.21l4.92,8.35H75.6l-2.5-4.63
			c-0.45-0.8-0.9-1.2-1.36-1.2c-0.37,0.08-0.56,0.32-0.56,0.69v5.13h-3.54V9.91h1.83C70.42,9.91,71.19,10.71,71.19,11.64z"/>
		<path id="XMLID_161_" class="st0" d="M84.16,11.64v7.79l4.36-5h4.25l-4.86,5.21l4.92,8.35h-4.25l-2.5-4.63
			c-0.45-0.8-0.9-1.2-1.36-1.2c-0.37,0.08-0.56,0.32-0.56,0.69v5.13h-3.54V9.91h1.83C83.39,9.91,84.16,10.71,84.16,11.64z"/>
		<path id="XMLID_159_" class="st0" d="M100.13,16.88c-2.1,0-3,1.75-3,3.91v7.2H93.6V9.91h1.78c1.17,0,1.75,0.61,1.75,1.78v4.2
			c1.81-2.07,4.01-2.66,6.65-1.73c1.97,0.72,2.9,2.6,2.79,5.66v8.16h-3.51v-7.2C103.06,18.42,102.15,16.88,100.13,16.88z"/>
		<path id="XMLID_156_" class="st0" d="M112.02,17.6h-3.54c0.43-2.6,2.26-3.88,5.5-3.88c3.88,0,5.85,1.28,5.93,3.88v4.78
			c0,3.88-2.34,5.61-6.14,5.87c-3.38,0.27-5.71-1.3-5.71-4.41c0.08-3.38,2.53-4.28,6.09-4.63c1.52-0.19,2.29-0.64,2.29-1.41
			c-0.08-0.8-0.82-1.2-2.29-1.2C112.89,16.61,112.2,16.93,112.02,17.6z M116.48,22.22v-1.3c-0.82,0.35-1.78,0.64-2.82,0.85
			c-1.41,0.27-2.13,0.93-2.13,1.97c0.08,1.12,0.66,1.65,1.78,1.65C115.29,25.39,116.48,24.22,116.48,22.22z"/>
	</g>
	<g>
		<path class="st1" d="M32.15,7.66c-2.71-0.78-5.21-1.06-7.47-0.86c-0.84-3.72-4.16-6.51-8.13-6.51c-3.97,0-7.29,2.79-8.13,6.51
			C6.16,6.6,3.66,6.88,0.95,7.66L0.09,7.91v27.77l1.4-0.32c0.14-0.03,2.07-0.29,4.52-0.29c0.51,0,1.05,0.01,1.6,0.04
			c4.06,0.2,7.07,1.14,8.94,2.79c1.88-1.65,4.88-2.59,8.94-2.79c3.16-0.16,5.96,0.21,6.12,0.25l1.4,0.32V7.91L32.15,7.66z
			 M16.55,2.47c2.9,0,5.33,2.01,5.99,4.7c-0.2,0.05-0.41,0.1-0.61,0.16c-1.68,0.51-3.21,1.34-4.58,2.49
			c-0.11,0.1-0.23,0.2-0.37,0.33l-0.43,0.39l-0.43-0.39c-0.14-0.13-0.26-0.23-0.37-0.33c-1.38-1.16-2.91-2-4.61-2.5
			c-0.19-0.06-0.39-0.1-0.58-0.15C11.22,4.48,13.66,2.47,16.55,2.47z M30.7,32.63l-0.74-0.08c-2.65-0.3-9.43,0.02-13.1,2.12
			l-0.31,0.18l-0.31-0.18c-3.68-2.1-10.46-2.42-13.1-2.12L2.4,32.63V9.87l0.53-0.12c2.2-0.5,4.21-0.6,6.02-0.33
			c0.69,0.1,1.35,0.26,1.98,0.48c1.24,0.42,2.38,1.06,3.39,1.92c0.81,0.68,1.55,1.51,2.22,2.47c0.67-0.96,1.42-1.79,2.22-2.47
			c1-0.85,2.13-1.48,3.36-1.91c0.63-0.22,1.29-0.38,1.99-0.48c1.82-0.28,3.84-0.17,6.05,0.32l0.53,0.12V32.63z"/>
		<path class="st1" d="M19.61,17.91c-1.31,0-2.31,0.27-3.04,0.83c-0.73-0.58-1.73-0.86-3.04-0.86c-2.9,0-4.36,1.44-4.36,4.34v5.97
			h2.59V21.7c0.02-1.06,0.6-1.58,1.73-1.58c1.13,0,1.71,0.52,1.77,1.58v6.49h2.57v-6.45c0.02-1.06,0.6-1.58,1.73-1.58
			c1.13,0,1.71,0.52,1.77,1.58v5.22c0,0.81,0.42,1.21,1.27,1.27h1.33v-5.97C23.95,19.36,22.51,17.91,19.61,17.91z"/>
	</g>
</g>
</svg>
